<svg width="32" height="32" viewBox="0 0 32 32" fill="none" xmlns="http://www.w3.org/2000/svg">
<path d="M15.9993 2.66699C12.4631 2.66699 9.07176 3.99781 6.57127 6.36669C4.07079 8.73557 2.66602 11.9485 2.66602 15.2986V25.1231C2.66524 25.6763 2.77967 26.2241 3.00275 26.7353C3.22583 27.2465 3.55318 27.7109 3.96604 28.1021C4.3789 28.4932 4.86915 28.8033 5.40873 29.0147C5.94831 29.226 6.52659 29.3344 7.11046 29.3337H11.5549V18.1056H5.62898V15.2986C5.62898 12.6929 6.72158 10.194 8.6664 8.35155C10.6112 6.50909 13.249 5.47401 15.9993 5.47401C18.7497 5.47401 21.3875 6.50909 23.3323 8.35155C25.2771 10.194 26.3697 12.6929 26.3697 15.2986V18.1056H20.4438V29.3337H24.8882C25.4721 29.3344 26.0504 29.226 26.59 29.0147C27.1296 28.8033 27.6198 28.4932 28.0327 28.1021C28.4455 27.7109 28.7729 27.2465 28.996 26.7353C29.219 26.2241 29.3335 25.6763 29.3327 25.1231V15.2986C29.3327 11.9485 27.9279 8.73557 25.4274 6.36669C22.927 3.99781 19.5356 2.66699 15.9993 2.66699Z" fill="black"/>
</svg>
