<svg width="30" height="30" viewBox="0 0 30 30" fill="none" xmlns="http://www.w3.org/2000/svg">
<g clip-path="url(#clip0_783_301)">
<path d="M6.60076 22.125L14.9952 15.6563L23.3952 22.125H6.60076ZM28.4352 22.4125L16.4008 13.1435V11.8325C18.4168 11.2115 19.9008 9.30828 19.9008 7.03703C19.9008 4.26553 17.7056 2.00578 15.0008 2.00578C12.296 2.00578 10.1008 4.26553 10.1008 7.03703H12.9008C12.9008 5.84678 13.8416 4.88078 15.0008 4.88078C16.16 4.88078 17.1008 5.84678 17.1008 7.03703C17.1008 8.22728 16.16 9.19328 15.0008 9.19328C14.228 9.19328 13.6008 9.83728 13.6008 10.6308V13.1493L1.56076 22.4125C0.485561 23.2405 1.05676 25 2.40076 25H27.5952C28.9392 25 29.5104 23.2405 28.4352 22.4125Z" fill="#AAAAAA"/>
</g>
<defs>
<clipPath id="clip0_783_301">
<rect width="28" height="23" fill="white" transform="translate(1 2)"/>
</clipPath>
</defs>
</svg>
