<svg width="37" height="30" viewBox="0 0 37 30" fill="none" xmlns="http://www.w3.org/2000/svg">
<path d="M2.875 27.5V18.125H1V11.25C1 9.875 2.125 8.75 3.5 8.75H7.25C8.625 8.75 9.75 9.875 9.75 11.25V18.125H7.875V27.5H2.875ZM18.5 27.5V20H22.25L19.075 10.4625C18.725 9.4375 17.775 8.75 16.7 8.75H16.55C15.475 8.75 14.5125 9.4375 14.175 10.4625L11 20H14.75V27.5H18.5ZM5.375 7.5C6.7625 7.5 7.875 6.3875 7.875 5C7.875 3.6125 6.7625 2.5 5.375 2.5C3.9875 2.5 2.875 3.6125 2.875 5C2.875 6.3875 3.9875 7.5 5.375 7.5ZM16.625 7.5C18.0125 7.5 19.125 6.3875 19.125 5C19.125 3.6125 18.0125 2.5 16.625 2.5C15.2375 2.5 14.125 3.6125 14.125 5C14.125 6.3875 15.2375 7.5 16.625 7.5Z" fill="#AAAAAA"/>
<path d="M16.625 7.5C18.0057 7.5 19.125 6.38071 19.125 5C19.125 3.61929 18.0057 2.5 16.625 2.5C15.2443 2.5 14.125 3.61929 14.125 5C14.125 6.38071 15.2443 7.5 16.625 7.5Z" fill="#AAAAAA"/>
<path d="M5.375 7.5C6.75571 7.5 7.875 6.38071 7.875 5C7.875 3.61929 6.75571 2.5 5.375 2.5C3.99429 2.5 2.875 3.61929 2.875 5C2.875 6.38071 3.99429 7.5 5.375 7.5Z" fill="#AAAAAA"/>
<path d="M16.7 8.75H16.55C15.475 8.75 14.5125 9.4375 14.175 10.4626L11 20H14.75V27.5H18.5V20H22.25L19.075 10.4626C18.725 9.43763 17.775 8.75 16.7 8.75Z" fill="#AAAAAA"/>
<path d="M7.25 8.75H3.5C2.125 8.75 1 9.875 1 11.25V18.125H2.875V27.5H7.875V18.125H9.75V11.25C9.75 9.875 8.625 8.75 7.25 8.75Z" fill="#AAAAAA"/>
<path d="M28.5871 11.6182H32.3686L33.0699 13.9359H35.9823L32.4753 2.5H29.1666L25.4766 13.9359H27.8399L28.5871 11.6182ZM30.5236 5.56488L31.7738 9.65125H29.2122L30.5236 5.56488Z" fill="#AAAAAA"/>
<path d="M31.4076 21.4007V23.3677H33.3289V23.6422C33.3289 24.8011 32.5208 25.5939 31.2705 25.5939C29.7456 25.5939 28.9071 24.496 28.9071 22.0107V21.5075C28.9071 19.0374 30.0201 18.0464 31.2858 18.0464C32.2311 18.0464 32.9325 18.5342 33.207 19.7084L35.9516 19.3729C35.5551 17.0705 33.9694 15.8811 31.301 15.8811C28.0838 15.8811 25.8271 18.275 25.8271 21.7057V21.9497C25.8271 25.3195 27.8094 27.6525 30.7826 27.6525C32.2311 27.6525 33.207 27.073 33.8169 26.2345V27.5H36.1345V21.4009L31.4076 21.4007Z" fill="#AAAAAA"/>
</svg>
