<svg width="32" height="32" viewBox="0 0 32 32" fill="none" xmlns="http://www.w3.org/2000/svg">
<g clip-path="url(#clip0_771_10432)">
<path d="M10.6667 32C8.71111 32 7.03704 31.3037 5.64444 29.9111C4.25185 28.5185 3.55556 26.8444 3.55556 24.8889V10.3556C2.51852 9.97037 1.66667 9.32593 1 8.42222C0.333333 7.51852 0 6.48889 0 5.33333C0 3.85185 0.518519 2.59259 1.55556 1.55556C2.59259 0.518519 3.85185 0 5.33333 0C6.81482 0 8.07407 0.518519 9.11111 1.55556C10.1481 2.59259 10.6667 3.85185 10.6667 5.33333C10.6667 6.48889 10.3333 7.51852 9.66667 8.42222C9 9.32593 8.14815 9.97037 7.11111 10.3556V24.8889C7.11111 25.8667 7.45926 26.7037 8.15556 27.4C8.85185 28.0963 9.68889 28.4444 10.6667 28.4444C11.6444 28.4444 12.4815 28.0963 13.1778 27.4C13.8741 26.7037 14.2222 25.8667 14.2222 24.8889V7.11111C14.2222 5.15556 14.9185 3.48148 16.3111 2.08889C17.7037 0.696296 19.3778 0 21.3333 0C23.2889 0 24.963 0.696296 26.3556 2.08889C27.7481 3.48148 28.4444 5.15556 28.4444 7.11111V21.6444C29.4815 22.0296 30.3333 22.6741 31 23.5778C31.6667 24.4815 32 25.5111 32 26.6667C32 28.1481 31.4815 29.4074 30.4444 30.4444C29.4074 31.4815 28.1481 32 26.6667 32C25.1852 32 23.9259 31.4815 22.8889 30.4444C21.8519 29.4074 21.3333 28.1481 21.3333 26.6667C21.3333 25.5111 21.6667 24.4741 22.3333 23.5556C23 22.637 23.8519 22 24.8889 21.6444V7.11111C24.8889 6.13333 24.5407 5.2963 23.8444 4.6C23.1481 3.9037 22.3111 3.55556 21.3333 3.55556C20.3556 3.55556 19.5185 3.9037 18.8222 4.6C18.1259 5.2963 17.7778 6.13333 17.7778 7.11111V24.8889C17.7778 26.8444 17.0815 28.5185 15.6889 29.9111C14.2963 31.3037 12.6222 32 10.6667 32Z" fill="black"/>
</g>
<defs>
<clipPath id="clip0_771_10432">
<rect width="32" height="32" fill="white"/>
</clipPath>
</defs>
</svg>
