<svg width="30" height="30" viewBox="0 0 30 30" fill="none" xmlns="http://www.w3.org/2000/svg">
<path d="M9.75 29.25C7.675 29.25 5.90625 28.5188 4.44375 27.0563C2.98125 25.5938 2.25 23.825 2.25 21.75C2.25 19.675 2.98125 17.9062 4.44375 16.4438C5.90625 14.9813 7.675 14.25 9.75 14.25V17.25C8.5 17.25 7.4375 17.6875 6.5625 18.5625C5.6875 19.4375 5.25 20.5 5.25 21.75C5.25 23 5.6875 24.0625 6.5625 24.9375C7.4375 25.8125 8.5 26.25 9.75 26.25C11 26.25 12.0625 25.8125 12.9375 24.9375C13.8125 24.0625 14.25 23 14.25 21.75H17.25C17.25 23.825 16.5188 25.5938 15.0563 27.0563C13.5938 28.5188 11.825 29.25 9.75 29.25ZM23.25 27.75V20.25H14.25C13.15 20.25 12.3 19.7812 11.7 18.8438C11.1 17.9062 11.025 16.925 11.475 15.9L14.25 9.75H10.8375L9.9375 12.075L7.05 11.25L8.1 8.55C8.325 7.975 8.69375 7.53125 9.20625 7.21875C9.71875 6.90625 10.275 6.75 10.875 6.75H18.675C19.8 6.75 20.6562 7.20625 21.2438 8.11875C21.8313 9.03125 21.9 10 21.45 11.025L18.975 16.5H23.25C24.075 16.5 24.7812 16.7938 25.3688 17.3813C25.9563 17.9688 26.25 18.675 26.25 19.5V27.75H23.25ZM21.75 6C20.925 6 20.2188 5.70625 19.6313 5.11875C19.0438 4.53125 18.75 3.825 18.75 3C18.75 2.175 19.0438 1.46875 19.6313 0.88125C20.2188 0.29375 20.925 0 21.75 0C22.575 0 23.2812 0.29375 23.8688 0.88125C24.4563 1.46875 24.75 2.175 24.75 3C24.75 3.825 24.4563 4.53125 23.8688 5.11875C23.2812 5.70625 22.575 6 21.75 6Z" fill="#AAAAAA"/>
</svg>
