<svg width="307" height="307" viewBox="0 0 307 307" fill="none" xmlns="http://www.w3.org/2000/svg">
<path fill-rule="evenodd" clip-rule="evenodd" d="M87.7143 14.619H14.619V87.7143H87.7143V14.619ZM102.333 0V102.333H0V0H102.333ZM175.429 14.619H131.571V0H175.429V14.619ZM131.571 43.8571H116.952V14.619H131.571V43.8571ZM146.19 43.8571V58.4762H160.81V43.8571H146.19ZM146.19 43.8571V29.2381H190.048V43.8571H175.429V87.7143H160.81V102.333H146.19V87.7143H131.571V116.952H116.952V58.4762H131.571V43.8571H146.19ZM146.19 131.571V146.19H131.571V160.81H116.952V175.429H102.333V160.81H87.7143V146.19H102.333V131.571H87.7143V116.952H116.952V131.571H146.19ZM87.7143 175.429V190.048H102.333V175.429H87.7143ZM73.0952 175.429V160.81H87.7143V175.429H73.0952ZM58.4762 175.429V190.048H73.0952V175.429H58.4762ZM14.619 175.429V160.81H43.8571V146.19H58.4762V131.571H73.0952V160.81H58.4762V175.429H43.8571V190.048H29.2381V175.429H14.619ZM43.8571 131.571H29.2381V116.952H0V160.81H14.619V146.19H43.8571V131.571ZM43.8571 131.571H58.4762V116.952H43.8571V131.571ZM14.619 175.429H0V190.048H14.619V175.429ZM131.571 175.429V219.286H116.952V175.429H131.571ZM175.429 175.429V190.048H160.81V204.667H175.429V219.286H204.667V204.667H233.905V219.286H219.286V233.905H233.905V277.762H248.524V248.524H263.143V233.905H248.524V219.286H277.762V248.524H292.381V277.762H307V233.905H292.381V204.667H307V190.048H292.381V204.667H233.905V175.429H248.524V190.048H263.143V160.81H277.762V175.429H307V131.571H292.381V116.952H263.143V131.571H292.381V160.81H277.762V146.19H263.143V160.81H233.905V175.429H219.286V160.81H204.667V175.429H219.286V190.048H190.048V175.429H175.429ZM131.571 175.429V160.81H175.429V175.429H131.571ZM160.81 131.571H190.048V160.81H175.429V146.19H160.81V131.571ZM160.81 131.571V116.952H146.19V131.571H160.81ZM292.381 14.619H219.286V87.7143H292.381V14.619ZM307 0V102.333H204.667V0H307ZM73.0952 29.2381V73.0952H29.2381V29.2381H73.0952ZM277.762 29.2381V73.0952H233.905V29.2381H277.762ZM190.048 87.7143V116.952H175.429V87.7143H190.048ZM248.524 116.952V146.19H204.667V116.952H248.524ZM87.7143 219.286H14.619V292.381H87.7143V219.286ZM102.333 204.667V307H0V204.667H102.333ZM160.81 219.286V233.905H175.429V248.524H131.571V233.905H146.19V219.286H160.81ZM190.048 248.524V263.143H204.667V277.762H190.048V292.381H160.81V277.762H146.19V263.143H175.429V248.524H190.048ZM146.19 292.381H131.571V307H116.952V277.762H146.19V292.381ZM146.19 292.381V307H160.81V292.381H146.19ZM190.048 248.524V233.905H204.667V248.524H190.048ZM131.571 248.524H116.952V263.143H131.571V248.524ZM73.0952 233.905V277.762H29.2381V233.905H73.0952ZM277.762 277.762H263.143V263.143H277.762V277.762ZM219.286 307H204.667V292.381H219.286V307ZM248.524 307H233.905V292.381H248.524V307ZM292.381 307H277.762V292.381H292.381V307Z" fill="black"/>
</svg>
