<svg width="61" height="61" viewBox="0 0 61 61" fill="none" xmlns="http://www.w3.org/2000/svg">
<path fill-rule="evenodd" clip-rule="evenodd" d="M17.3433 2.89054H2.89054V17.3433H17.3433V2.89054ZM20.2338 0V20.2338H0V0H20.2338ZM34.6865 2.89054H26.0149V0H34.6865V2.89054ZM26.0149 8.67163H23.1243V2.89054H26.0149V8.67163ZM28.9054 8.67163V11.5622H31.796V8.67163H28.9054ZM28.9054 8.67163V5.78109H37.5771V8.67163H34.6865V17.3433H31.796V20.2338H28.9054V17.3433H26.0149V23.1243H23.1243V11.5622H26.0149V8.67163H28.9054ZM28.9054 26.0149V28.9054H26.0149V31.796H23.1243V34.6865H20.2338V31.796H17.3433V28.9054H20.2338V26.0149H17.3433V23.1243H23.1243V26.0149H28.9054ZM17.3433 34.6865V37.5771H20.2338V34.6865H17.3433ZM14.4527 34.6865V31.796H17.3433V34.6865H14.4527ZM11.5622 34.6865V37.5771H14.4527V34.6865H11.5622ZM2.89054 34.6865V31.796H8.67163V28.9054H11.5622V26.0149H14.4527V31.796H11.5622V34.6865H8.67163V37.5771H5.78109V34.6865H2.89054ZM8.67163 26.0149H5.78109V23.1243H0V31.796H2.89054V28.9054H8.67163V26.0149ZM8.67163 26.0149H11.5622V23.1243H8.67163V26.0149ZM2.89054 34.6865H0V37.5771H2.89054V34.6865ZM26.0149 34.6865V43.3582H23.1243V34.6865H26.0149ZM34.6865 34.6865V37.5771H31.796V40.4676H34.6865V43.3582H40.4676V40.4676H46.2487V43.3582H43.3582V46.2487H46.2487V54.9203H49.1392V49.1392H52.0298V46.2487H49.1392V43.3582H54.9203V49.1392H57.8109V54.9203H60.7014V46.2487H57.8109V40.4676H60.7014V37.5771H57.8109V40.4676H46.2487V34.6865H49.1392V37.5771H52.0298V31.796H54.9203V34.6865H60.7014V26.0149H57.8109V23.1243H52.0298V26.0149H57.8109V31.796H54.9203V28.9054H52.0298V31.796H46.2487V34.6865H43.3582V31.796H40.4676V34.6865H43.3582V37.5771H37.5771V34.6865H34.6865ZM26.0149 34.6865V31.796H34.6865V34.6865H26.0149ZM31.796 26.0149H37.5771V31.796H34.6865V28.9054H31.796V26.0149ZM31.796 26.0149V23.1243H28.9054V26.0149H31.796ZM57.8109 2.89054H43.3582V17.3433H57.8109V2.89054ZM60.7014 0V20.2338H40.4676V0H60.7014ZM14.4527 5.78109V14.4527H5.78109V5.78109H14.4527ZM54.9203 5.78109V14.4527H46.2487V5.78109H54.9203ZM37.5771 17.3433V23.1243H34.6865V17.3433H37.5771ZM49.1392 23.1243V28.9054H40.4676V23.1243H49.1392ZM17.3433 43.3582H2.89054V57.8109H17.3433V43.3582ZM20.2338 40.4676V60.7014H0V40.4676H20.2338ZM31.796 43.3582V46.2487H34.6865V49.1392H26.0149V46.2487H28.9054V43.3582H31.796ZM37.5771 49.1392V52.0298H40.4676V54.9203H37.5771V57.8109H31.796V54.9203H28.9054V52.0298H34.6865V49.1392H37.5771ZM28.9054 57.8109H26.0149V60.7014H23.1243V54.9203H28.9054V57.8109ZM28.9054 57.8109V60.7014H31.796V57.8109H28.9054ZM37.5771 49.1392V46.2487H40.4676V49.1392H37.5771ZM26.0149 49.1392H23.1243V52.0298H26.0149V49.1392ZM14.4527 46.2487V54.9203H5.78109V46.2487H14.4527ZM54.9203 54.9203H52.0298V52.0298H54.9203V54.9203ZM43.3582 60.7014H40.4676V57.8109H43.3582V60.7014ZM49.1392 60.7014H46.2487V57.8109H49.1392V60.7014ZM57.8109 60.7014H54.9203V57.8109H57.8109V60.7014Z" fill="white"/>
</svg>
